<svg id="visual" viewBox="0 0 900 900" width="900" height="900" xmlns="http://www.w3.org/2000/svg" xmlns:xlink="http://www.w3.org/1999/xlink" version="1.1"><rect x="0" y="0" width="900" height="900" fill="#001220"></rect><defs><linearGradient id="grad1_0" x1="0%" y1="0%" x2="100%" y2="100%"><stop offset="30%" stop-color="#e79e9e" stop-opacity="1"></stop><stop offset="70%" stop-color="#e79e9e" stop-opacity="1"></stop></linearGradient></defs><defs><linearGradient id="grad1_1" x1="0%" y1="0%" x2="100%" y2="100%"><stop offset="30%" stop-color="#e79e9e" stop-opacity="1"></stop><stop offset="70%" stop-color="#001220" stop-opacity="1"></stop></linearGradient></defs><defs><linearGradient id="grad2_0" x1="0%" y1="0%" x2="100%" y2="100%"><stop offset="30%" stop-color="#e79e9e" stop-opacity="1"></stop><stop offset="70%" stop-color="#e79e9e" stop-opacity="1"></stop></linearGradient></defs><defs><linearGradient id="grad2_1" x1="0%" y1="0%" x2="100%" y2="100%"><stop offset="30%" stop-color="#001220" stop-opacity="1"></stop><stop offset="70%" stop-color="#e79e9e" stop-opacity="1"></stop></linearGradient></defs><g transform="translate(900, 0)"><path d="M0 540.9C-76.6 539.9 -153.1 539 -207 499.8C-260.9 460.6 -292.2 383.2 -325.3 325.3C-358.4 267.4 -393.3 228.9 -429.6 177.9C-465.9 127 -503.4 63.5 -540.9 0L0 0Z" fill="#6c526f"></path><path d="M0 270.5C-38.3 270 -76.6 269.5 -103.5 249.9C-130.5 230.3 -146.1 191.6 -162.6 162.6C-179.2 133.7 -196.7 114.5 -214.8 89C-232.9 63.5 -251.7 31.7 -270.5 0L0 0Z" fill="#e79e9e"></path></g><g transform="translate(0, 900)"><path d="M0 -540.9C59.4 -500.7 118.7 -460.5 179.9 -434.2C241 -407.9 303.9 -395.6 361.3 -361.3C418.8 -327.1 470.7 -270.9 499.8 -207C528.8 -143.1 534.9 -71.6 540.9 0L0 0Z" fill="#6c526f"></path><path d="M0 -270.5C29.7 -250.4 59.4 -230.3 89.9 -217.1C120.5 -204 151.9 -197.8 180.7 -180.7C209.4 -163.5 235.4 -135.4 249.9 -103.5C264.4 -71.6 267.4 -35.8 270.5 0L0 0Z" fill="#e79e9e"></path></g></svg>