<svg id="visual" viewBox="0 0 675 900" width="675" height="900" xmlns="http://www.w3.org/2000/svg" xmlns:xlink="http://www.w3.org/1999/xlink" version="1.1"><rect x="0" y="0" width="675" height="900" fill="#001220"></rect><path d="M0 619L16 615.8C32 612.7 64 606.3 96.2 595.3C128.3 584.3 160.7 568.7 192.8 570.2C225 571.7 257 590.3 289.2 589.5C321.3 588.7 353.7 568.3 385.8 572.2C418 576 450 604 482.2 604.3C514.3 604.7 546.7 577.3 578.8 561.3C611 545.3 643 540.7 659 538.3L675 536L675 901L659 901C643 901 611 901 578.8 901C546.7 901 514.3 901 482.2 901C450 901 418 901 385.8 901C353.7 901 321.3 901 289.2 901C257 901 225 901 192.8 901C160.7 901 128.3 901 96.2 901C64 901 32 901 16 901L0 901Z" fill="#fa7268"></path><path d="M0 604L16 605.2C32 606.3 64 608.7 96.2 616.2C128.3 623.7 160.7 636.3 192.8 646.2C225 656 257 663 289.2 657.3C321.3 651.7 353.7 633.3 385.8 629.2C418 625 450 635 482.2 652C514.3 669 546.7 693 578.8 687.3C611 681.7 643 646.3 659 628.7L675 611L675 901L659 901C643 901 611 901 578.8 901C546.7 901 514.3 901 482.2 901C450 901 418 901 385.8 901C353.7 901 321.3 901 289.2 901C257 901 225 901 192.8 901C160.7 901 128.3 901 96.2 901C64 901 32 901 16 901L0 901Z" fill="#ef5f67"></path><path d="M0 669L16 675.2C32 681.3 64 693.7 96.2 693.2C128.3 692.7 160.7 679.3 192.8 673.5C225 667.7 257 669.3 289.2 672.2C321.3 675 353.7 679 385.8 679.3C418 679.7 450 676.3 482.2 685.7C514.3 695 546.7 717 578.8 722.7C611 728.3 643 717.7 659 712.3L675 707L675 901L659 901C643 901 611 901 578.8 901C546.7 901 514.3 901 482.2 901C450 901 418 901 385.8 901C353.7 901 321.3 901 289.2 901C257 901 225 901 192.8 901C160.7 901 128.3 901 96.2 901C64 901 32 901 16 901L0 901Z" fill="#e34c67"></path><path d="M0 732L16 733C32 734 64 736 96.2 749.3C128.3 762.7 160.7 787.3 192.8 792.8C225 798.3 257 784.7 289.2 770C321.3 755.3 353.7 739.7 385.8 736.7C418 733.7 450 743.3 482.2 743.7C514.3 744 546.7 735 578.8 735.5C611 736 643 746 659 751L675 756L675 901L659 901C643 901 611 901 578.8 901C546.7 901 514.3 901 482.2 901C450 901 418 901 385.8 901C353.7 901 321.3 901 289.2 901C257 901 225 901 192.8 901C160.7 901 128.3 901 96.2 901C64 901 32 901 16 901L0 901Z" fill="#d53867"></path><path d="M0 801L16 810.8C32 820.7 64 840.3 96.2 841C128.3 841.7 160.7 823.3 192.8 822.8C225 822.3 257 839.7 289.2 841.8C321.3 844 353.7 831 385.8 826.7C418 822.3 450 826.7 482.2 825.3C514.3 824 546.7 817 578.8 816.3C611 815.7 643 821.3 659 824.2L675 827L675 901L659 901C643 901 611 901 578.8 901C546.7 901 514.3 901 482.2 901C450 901 418 901 385.8 901C353.7 901 321.3 901 289.2 901C257 901 225 901 192.8 901C160.7 901 128.3 901 96.2 901C64 901 32 901 16 901L0 901Z" fill="#c62368"></path></svg>