<svg id="visual" viewBox="0 0 900 900" width="900" height="900" xmlns="http://www.w3.org/2000/svg" xmlns:xlink="http://www.w3.org/1999/xlink" version="1.1"><rect x="0" y="0" width="900" height="900" fill="#001220"></rect><path d="M0 618L18.8 610C37.7 602 75.3 586 112.8 569.5C150.3 553 187.7 536 225.2 543C262.7 550 300.3 581 337.8 581.5C375.3 582 412.7 552 450.2 543C487.7 534 525.3 546 562.8 562.5C600.3 579 637.7 600 675.2 593.5C712.7 587 750.3 553 787.8 550.8C825.3 548.7 862.7 578.3 881.3 593.2L900 608L900 901L881.3 901C862.7 901 825.3 901 787.8 901C750.3 901 712.7 901 675.2 901C637.7 901 600.3 901 562.8 901C525.3 901 487.7 901 450.2 901C412.7 901 375.3 901 337.8 901C300.3 901 262.7 901 225.2 901C187.7 901 150.3 901 112.8 901C75.3 901 37.7 901 18.8 901L0 901Z" fill="#fa7268"></path><path d="M0 612L18.8 607.8C37.7 603.7 75.3 595.3 112.8 598.5C150.3 601.7 187.7 616.3 225.2 623.2C262.7 630 300.3 629 337.8 626C375.3 623 412.7 618 450.2 626.5C487.7 635 525.3 657 562.8 667.3C600.3 677.7 637.7 676.3 675.2 661.3C712.7 646.3 750.3 617.7 787.8 601.8C825.3 586 862.7 583 881.3 581.5L900 580L900 901L881.3 901C862.7 901 825.3 901 787.8 901C750.3 901 712.7 901 675.2 901C637.7 901 600.3 901 562.8 901C525.3 901 487.7 901 450.2 901C412.7 901 375.3 901 337.8 901C300.3 901 262.7 901 225.2 901C187.7 901 150.3 901 112.8 901C75.3 901 37.7 901 18.8 901L0 901Z" fill="#f16367"></path><path d="M0 644L18.8 649C37.7 654 75.3 664 112.8 667.2C150.3 670.3 187.7 666.7 225.2 663C262.7 659.3 300.3 655.7 337.8 660C375.3 664.3 412.7 676.7 450.2 687.8C487.7 699 525.3 709 562.8 703.5C600.3 698 637.7 677 675.2 669.3C712.7 661.7 750.3 667.3 787.8 668C825.3 668.7 862.7 664.3 881.3 662.2L900 660L900 901L881.3 901C862.7 901 825.3 901 787.8 901C750.3 901 712.7 901 675.2 901C637.7 901 600.3 901 562.8 901C525.3 901 487.7 901 450.2 901C412.7 901 375.3 901 337.8 901C300.3 901 262.7 901 225.2 901C187.7 901 150.3 901 112.8 901C75.3 901 37.7 901 18.8 901L0 901Z" fill="#e85467"></path><path d="M0 716L18.8 726.2C37.7 736.3 75.3 756.7 112.8 766.2C150.3 775.7 187.7 774.3 225.2 766.5C262.7 758.7 300.3 744.3 337.8 733.2C375.3 722 412.7 714 450.2 720.7C487.7 727.3 525.3 748.7 562.8 758.5C600.3 768.3 637.7 766.7 675.2 753.8C712.7 741 750.3 717 787.8 704.3C825.3 691.7 862.7 690.3 881.3 689.7L900 689L900 901L881.3 901C862.7 901 825.3 901 787.8 901C750.3 901 712.7 901 675.2 901C637.7 901 600.3 901 562.8 901C525.3 901 487.7 901 450.2 901C412.7 901 375.3 901 337.8 901C300.3 901 262.7 901 225.2 901C187.7 901 150.3 901 112.8 901C75.3 901 37.7 901 18.8 901L0 901Z" fill="#de4467"></path><path d="M0 798L18.8 793.2C37.7 788.3 75.3 778.7 112.8 775.5C150.3 772.3 187.7 775.7 225.2 779.5C262.7 783.3 300.3 787.7 337.8 787.5C375.3 787.3 412.7 782.7 450.2 782.3C487.7 782 525.3 786 562.8 780.8C600.3 775.7 637.7 761.3 675.2 756.5C712.7 751.7 750.3 756.3 787.8 757.5C825.3 758.7 862.7 756.3 881.3 755.2L900 754L900 901L881.3 901C862.7 901 825.3 901 787.8 901C750.3 901 712.7 901 675.2 901C637.7 901 600.3 901 562.8 901C525.3 901 487.7 901 450.2 901C412.7 901 375.3 901 337.8 901C300.3 901 262.7 901 225.2 901C187.7 901 150.3 901 112.8 901C75.3 901 37.7 901 18.8 901L0 901Z" fill="#d23467"></path><path d="M0 823L18.8 820.7C37.7 818.3 75.3 813.7 112.8 814.5C150.3 815.3 187.7 821.7 225.2 829C262.7 836.3 300.3 844.7 337.8 851C375.3 857.3 412.7 861.7 450.2 860C487.7 858.3 525.3 850.7 562.8 841.3C600.3 832 637.7 821 675.2 820.3C712.7 819.7 750.3 829.3 787.8 833.3C825.3 837.3 862.7 835.7 881.3 834.8L900 834L900 901L881.3 901C862.7 901 825.3 901 787.8 901C750.3 901 712.7 901 675.2 901C637.7 901 600.3 901 562.8 901C525.3 901 487.7 901 450.2 901C412.7 901 375.3 901 337.8 901C300.3 901 262.7 901 225.2 901C187.7 901 150.3 901 112.8 901C75.3 901 37.7 901 18.8 901L0 901Z" fill="#c62368"></path></svg>